<svg xmlns="http://www.w3.org/2000/svg" viewBox="0 0 320 320">
  <rect width="320" height="320" fill="#fff7ed"/>
  <circle cx="255" cy="70" r="44" fill="#ef4444" opacity=".16"/>
  <circle cx="60" cy="260" r="54" fill="#f59e0b" opacity=".18"/>
  <path d="M55 190c18-70 82-116 157-96 43 11 72 41 85 79-45 49-121 67-190 42-20-7-38-15-52-25z" fill="#f7b955"/>
  <path d="M74 183c39 24 89 33 137 21 27-7 50-20 68-39" fill="none" stroke="#8a3c12" stroke-width="10" stroke-linecap="round"/>
  <path d="M88 169c11-24 33-43 61-52" fill="none" stroke="#fff1c2" stroke-width="9" stroke-linecap="round"/>
  <path d="M90 205c41 18 83 21 127 7" fill="none" stroke="#d97706" stroke-width="8" stroke-linecap="round" stroke-dasharray="1 18"/>
</svg>
